<?xml version="1.0" encoding="UTF-8" standalone="no"?>
<svg
   xmlns:dc="http://purl.org/dc/elements/1.1/"
   xmlns:cc="http://creativecommons.org/ns#"
   xmlns:rdf="http://www.w3.org/1999/02/22-rdf-syntax-ns#"
   xmlns:svg="http://www.w3.org/2000/svg"
   xmlns="http://www.w3.org/2000/svg"
   xmlns:sodipodi="http://sodipodi.sourceforge.net/DTD/sodipodi-0.dtd"
   xmlns:inkscape="http://www.inkscape.org/namespaces/inkscape"
   inkscape:version="1.0 (4035a4fb49, 2020-05-01)"
   sodipodi:docname="react-brands.svg"
   id="svg4"
   version="1.1"
   viewBox="0 0 512 512"
   role="img"
   class="svg-inline--fa fa-react fa-w-16"
   data-icon="react"
   data-prefix="fab"
   focusable="false"
   aria-hidden="true">
  <metadata
     id="metadata10">
    <rdf:RDF>
      <cc:Work
         rdf:about="">
        <dc:format>image/svg+xml</dc:format>
        <dc:type
           rdf:resource="http://purl.org/dc/dcmitype/StillImage" />
        <dc:title></dc:title>
      </cc:Work>
    </rdf:RDF>
  </metadata>
  <defs
     id="defs8" />
  <sodipodi:namedview
     inkscape:current-layer="svg4"
     inkscape:window-maximized="1"
     inkscape:window-y="-9"
     inkscape:window-x="-9"
     inkscape:cy="254.76627"
     inkscape:cx="256"
     inkscape:zoom="1.6210938"
     showgrid="false"
     id="namedview6"
     inkscape:window-height="1001"
     inkscape:window-width="1920"
     inkscape:pageshadow="2"
     inkscape:pageopacity="0"
     guidetolerance="10"
     gridtolerance="10"
     objecttolerance="10"
     borderopacity="1"
     bordercolor="#666666"
     pagecolor="#ffffff" />
  <path
     id="path2"
     d="M418.2 177.2c-5.4-1.8-10.8-3.5-16.2-5.1.9-3.7 1.7-7.4 2.5-11.1 12.3-59.6 4.2-107.5-23.1-123.3-26.3-15.1-69.2.6-112.6 38.4-4.3 3.7-8.5 7.6-12.5 11.5-2.7-2.6-5.5-5.2-8.3-7.7-45.5-40.4-91.1-57.4-118.4-41.5-26.2 15.2-34 60.3-23 116.7 1.1 5.6 2.3 11.1 3.7 16.7-6.4 1.8-12.7 3.8-18.6 5.9C38.3 196.2 0 225.4 0 255.6c0 31.2 40.8 62.5 96.3 81.5 4.5 1.5 9 3 13.6 4.3-1.5 6-2.8 11.9-4 18-10.5 55.5-2.3 99.5 23.9 114.6 27 15.6 72.4-.4 116.6-39.1 3.5-3.1 7-6.3 10.5-9.7 4.4 4.3 9 8.4 13.6 12.4 42.8 36.8 85.1 51.7 111.2 36.6 27-15.6 35.8-62.9 24.4-120.5-.9-4.4-1.9-8.9-3-13.5 3.2-.9 6.3-1.9 9.4-2.9 57.7-19.1 99.5-50 99.5-81.7 0-30.3-39.4-59.7-93.8-78.4zM282.9 92.3c37.2-32.4 71.9-45.1 87.7-36 16.9 9.7 23.4 48.9 12.8 100.4-.7 3.4-1.4 6.7-2.3 10-22.2-5-44.7-8.6-67.3-10.6-13-18.6-27.2-36.4-42.6-53.1 3.9-3.7 7.7-7.2 11.7-10.7zM167.2 307.5c5.1 8.7 10.3 17.4 15.8 25.9-15.6-1.7-31.1-4.2-46.4-7.5 4.4-14.4 9.9-29.3 16.3-44.5 4.6 8.8 9.3 17.5 14.3 26.1zm-30.3-120.3c14.4-3.2 29.7-5.8 45.6-7.8-5.3 8.3-10.5 16.8-15.4 25.4-4.9 8.5-9.7 17.2-14.2 26-6.3-14.9-11.6-29.5-16-43.6zm27.4 68.9c6.6-13.8 13.8-27.3 21.4-40.6s15.8-26.2 24.4-38.9c15-1.1 30.3-1.7 45.9-1.7s31 .6 45.9 1.7c8.5 12.6 16.6 25.5 24.3 38.7s14.9 26.7 21.7 40.4c-6.7 13.8-13.9 27.4-21.6 40.8-7.6 13.3-15.7 26.2-24.2 39-14.9 1.1-30.4 1.6-46.1 1.6s-30.9-.5-45.6-1.4c-8.7-12.7-16.9-25.7-24.6-39s-14.8-26.8-21.5-40.6zm180.6 51.2c5.1-8.8 9.9-17.7 14.6-26.7 6.4 14.5 12 29.2 16.9 44.3-15.5 3.5-31.2 6.2-47 8 5.4-8.4 10.5-17 15.5-25.6zm14.4-76.5c-4.7-8.8-9.5-17.6-14.5-26.2-4.9-8.5-10-16.9-15.3-25.2 16.1 2 31.5 4.7 45.9 8-4.6 14.8-10 29.2-16.1 43.4zM256.2 118.3c10.5 11.4 20.4 23.4 29.6 35.8-19.8-.9-39.7-.9-59.5 0 9.8-12.9 19.9-24.9 29.9-35.8zM140.2 57c16.8-9.8 54.1 4.2 93.4 39 2.5 2.2 5 4.6 7.6 7-15.5 16.7-29.8 34.5-42.9 53.1-22.6 2-45 5.5-67.2 10.4-1.3-5.1-2.4-10.3-3.5-15.5-9.4-48.4-3.2-84.9 12.6-94zm-24.5 263.6c-4.2-1.2-8.3-2.5-12.4-3.9-21.3-6.7-45.5-17.3-63-31.2-10.1-7-16.9-17.8-18.8-29.9 0-18.3 31.6-41.7 77.2-57.6 5.7-2 11.5-3.8 17.3-5.5 6.8 21.7 15 43 24.5 63.6-9.6 20.9-17.9 42.5-24.8 64.5zm116.6 98c-16.5 15.1-35.6 27.1-56.4 35.3-11.1 5.3-23.9 5.8-35.3 1.3-15.9-9.2-22.5-44.5-13.5-92 1.1-5.6 2.3-11.2 3.7-16.7 22.4 4.8 45 8.1 67.9 9.8 13.2 18.7 27.7 36.6 43.2 53.4-3.2 3.1-6.4 6.1-9.6 8.9zm24.5-24.3c-10.2-11-20.4-23.2-30.3-36.3 9.6.4 19.5.6 29.5.6 10.3 0 20.4-.2 30.4-.7-9.2 12.7-19.1 24.8-29.6 36.4zm130.7 30c-.9 12.2-6.9 23.6-16.5 31.3-15.9 9.2-49.8-2.8-86.4-34.2-4.2-3.6-8.4-7.5-12.7-11.5 15.3-16.9 29.4-34.8 42.2-53.6 22.9-1.9 45.7-5.4 68.2-10.5 1 4.1 1.9 8.2 2.7 12.2 4.9 21.6 5.7 44.1 2.5 66.3zm18.2-107.5c-2.8.9-5.6 1.8-8.5 2.6-7-21.8-15.6-43.1-25.5-63.8 9.6-20.4 17.7-41.4 24.5-62.9 5.2 1.5 10.2 3.1 15 4.7 46.6 16 79.3 39.8 79.3 58 0 19.6-34.9 44.9-84.8 61.4zm-149.7-15c25.3 0 45.8-20.5 45.8-45.8s-20.5-45.8-45.8-45.8c-25.3 0-45.8 20.5-45.8 45.8s20.5 45.8 45.8 45.8z"
     fill="currentColor" />
  <path
     id="path835"
     d="m 351.06469,479.30577 c -25.41585,-3.17791 -54.41274,-18.94941 -85.06301,-46.26603 l -9.12121,-8.12914 -4.66076,4.21939 c -28.10362,25.4423 -53.91014,41.05393 -79.10044,47.85173 -6.79799,1.83449 -7.79199,1.93996 -18.59397,1.97298 -10.98127,0.0336 -11.59833,-0.0307 -16.34699,-1.70288 -7.30073,-2.57084 -11.15484,-5.00383 -16.70833,-10.54749 -7.61431,-7.60085 -12.62508,-17.1214 -15.93175,-30.2706 -5.571445,-22.15526 -4.61877,-54.3019 2.53151,-85.42164 2.47983,-10.7928 3.44771,-9.34913 -9.062511,-13.51732 C 72.574137,328.68773 49.429442,317.13332 31.891507,303.98892 24.314628,298.31017 14.427267,288.51457 10.226848,282.5253 3.2472443,272.57327 0.6291039,265.1675 0.63137039,255.38313 0.63361579,245.68108 3.432865,238.17925 10.653257,228.52502 c 15.569759,-20.818 47.355502,-39.65052 90.065523,-53.36234 8.14351,-2.61443 9.98147,-3.41119 9.73322,-4.21937 -0.64213,-2.09049 -4.04046,-18.51491 -4.92861,-23.82042 -5.01238,-29.94193 -4.34064,-57.989249 1.84983,-77.236856 2.1864,-6.798017 7.15464,-16.471688 10.78903,-21.007372 5.7539,-7.180781 14.13745,-12.521886 23.11744,-14.72796 5.9187,-1.454018 18.57944,-1.445839 25.58296,0.01653 25.40328,5.304318 57.51511,24.061397 84.32444,49.25538 2.44206,2.294915 4.71342,4.172572 5.04747,4.172572 0.33406,0 3.05505,-2.26813 6.04664,-5.040289 18.22532,-16.888432 36.01949,-29.521344 54.17181,-38.459101 16.90892,-8.325533 28.48987,-11.533889 41.63856,-11.535431 9.09511,-0.0011 14.86788,1.289067 21.77571,4.866568 5.74738,2.976507 14.02407,11.097279 17.60519,17.273512 13.88647,23.949584 16.03937,61.734887 6.17187,108.321987 -1.06173,5.01269 -1.82158,9.19389 -1.68858,9.29155 0.13301,0.0977 5.51605,1.90195 11.96231,4.00954 61.2686,20.03159 99.57897,51.92335 97.56495,81.21865 -0.87712,12.75827 -6.94277,23.62449 -20.37594,36.50217 -10.9766,10.52269 -22.77831,18.43113 -40.79383,27.33635 -12.6091,6.23277 -22.75761,10.39397 -37.00703,15.17398 -5.42568,1.82007 -9.95001,3.56465 -10.05408,3.87686 -0.10407,0.31221 0.78454,5.38501 1.9747,11.27288 3.87411,19.16589 5.29715,32.14956 5.29794,48.33793 0.002,37.88748 -11.32921,65.14121 -31.13762,74.89286 -7.73558,3.80821 -18.96327,5.54081 -28.32247,4.37057 z m 17.39353,-22.21412 c 7.26256,-3.12428 16.01125,-15.58531 18.26616,-26.01708 1.57706,-7.29583 2.82746,-21.90284 2.82691,-33.02329 -5.9e-4,-11.89197 -0.72907,-20.91619 -2.5037,-31.01514 -1.17806,-6.704 -4.23291,-21.10138 -4.54855,-21.43707 -0.0802,-0.0853 -4.14599,0.69277 -9.03502,1.72911 -15.89036,3.36835 -35.95617,6.37556 -55.5549,8.3259 l -4.0957,0.40758 -3.2911,4.71615 c -9.71917,13.92761 -24.34674,32.52614 -34.58117,43.96897 -2.31607,2.58953 -4.21103,4.85999 -4.21103,5.04548 0,0.49729 6.30444,6.40447 12.64578,11.84893 23.34134,20.0401 47.09281,33.20405 66.26353,36.72571 5.00931,0.92021 14.25313,0.25865 17.81879,-1.27525 z m -201.643,0.28871 c 4.47501,-1.05481 15.98438,-5.76517 24.3614,-9.97022 15.86607,-7.96436 31.30635,-18.94597 46.00557,-32.72059 l 5.24002,-4.91041 -6.51584,-7.33776 C 225.7984,391.05836 216.86801,380.11402 207.43072,367.54399 l -8.64977,-11.52108 -4.70132,-0.40323 c -8.11585,-0.6961 -20.39915,-2.11914 -29.68445,-3.43898 -8.22742,-1.16948 -30.40034,-5.12811 -32.79101,-5.85433 -0.84846,-0.25774 -1.28632,0.82137 -2.57428,6.34418 -4.11719,17.65478 -6.02401,33.49915 -6.03316,50.13171 -0.0147,26.61022 5.49741,44.27445 16.19196,51.88965 4.59723,3.27351 19.14025,4.68876 27.62653,2.68845 z m 103.31829,-78.00687 c 6.04618,-7.336 16.40142,-20.64395 16.40144,-21.07816 0,-0.11207 -13.57142,-0.20376 -30.15869,-0.20376 h -30.1587 l 1.25212,1.75844 c 2.99137,4.20103 15.19245,19.10422 21.87634,26.72117 l 7.27085,8.28585 3.58076,-3.88635 c 1.96942,-2.13749 6.44056,-7.35622 9.93588,-11.59719 z m 14.20946,-42.62379 c 8.80309,-0.37383 16.57562,-0.89919 17.27229,-1.16745 3.03856,-1.17009 25.6865,-38.92885 40.31751,-67.21753 l 6.52629,-12.61841 -4.28254,-8.33251 c -10.45985,-20.35166 -23.53113,-42.83213 -35.96061,-61.84638 l -5.91871,-9.05425 -3.40884,-0.36599 C 292.52685,175.4642 268.39192,174.58522 256,174.58522 c -12.38987,0 -36.52633,0.87894 -42.88622,1.56172 l -3.4067,0.36573 -6.54365,9.97981 c -11.93107,18.19623 -22.00431,35.60803 -33.20356,57.39299 l -6.20888,12.07762 4.09574,8.19195 c 9.83203,19.66516 22.91103,42.35997 35.52349,61.6407 l 6.80121,10.39703 3.7914,0.0816 c 2.08526,0.0449 8.09404,0.27284 13.35283,0.50651 15.819,0.70293 40.0516,0.68966 57.02731,-0.0312 z m -102.00829,-5.02922 c -4.39746,-6.75799 -17.50732,-29.04763 -22.88103,-38.90276 -3.48073,-6.38351 -6.54262,-11.38014 -6.80421,-11.10362 -1.26408,1.33628 -10.77376,26.39828 -14.50684,38.23163 l -1.97757,6.26861 9.95122,1.90302 c 5.47317,1.04666 14.67026,2.5842 20.43797,3.41675 12.75095,1.84058 13.80291,1.98177 15.63648,2.09877 l 1.44853,0.0924 z m 159.4099,-0.13581 c 11.83871,-1.715 32.99068,-5.72577 34.22736,-6.49009 0.63868,-0.39472 -0.13635,-3.17005 -3.57442,-12.79963 -3.66552,-10.2667 -12.07119,-31.43151 -12.75971,-32.12796 -0.10836,-0.10961 -1.79555,2.80509 -3.74932,6.4771 -7.18651,13.50671 -20.54532,36.54167 -25.04323,43.18272 -0.96056,1.41823 -1.74646,2.73679 -1.74646,2.93012 0,0.57418 1.63856,0.42228 12.64578,-1.17226 z m -221.55879,-23.3088 c 4.74767,-14.06704 11.38711,-31.20106 16.95571,-43.75661 l 3.74532,-8.44459 -3.12732,-6.9771 c -6.68764,-14.92024 -14.35597,-35.0255 -20.07176,-52.62528 -0.69997,-2.1553 -1.60053,-3.77854 -2.15612,-3.88635 -0.52476,-0.10182 -6.3755,1.62402 -13.00163,3.83521 -31.979857,10.67191 -57.264628,24.67707 -71.195845,39.43517 -5.585696,5.91723 -9.350059,12.49064 -9.888477,17.26747 -0.77646,6.88874 4.215737,18.63529 11.097864,26.1131 8.598628,9.34287 30.889579,22.68291 51.967311,31.09987 8.211987,3.2793 28.873057,10.3051 30.534937,10.38343 0.66373,0.0313 2.11678,-3.48665 5.14001,-12.44432 z m 284.95333,9.04081 c 19.68552,-6.3096 42.91042,-17.16588 57.74346,-26.99168 11.3354,-7.50888 21.48897,-17.50813 25.0881,-24.70682 2.27295,-4.54616 2.43896,-5.23896 2.43896,-10.17831 0,-4.98706 -0.14326,-5.56828 -2.42543,-9.84045 -9.24992,-17.31567 -41.51106,-37.13854 -81.35663,-49.98961 -5.36688,-1.73094 -9.99682,-3.14716 -10.28876,-3.14716 -0.29193,0 -0.99455,1.59615 -1.56136,3.54699 -2.92372,10.06288 -13.52164,37.63708 -19.81555,51.5571 -1.81459,4.01328 -3.29926,7.6321 -3.29926,8.04183 0,0.40973 1.92435,4.92777 4.27634,10.04008 5.18414,11.26832 13.73566,32.6677 17.59059,44.01882 1.5555,4.58024 2.95366,8.6747 3.10704,9.0988 0.39484,1.09171 0.77712,1.02654 8.5025,-1.44959 z M 163.94746,211.27711 c 3.40593,-6.10699 9.07549,-15.78789 12.59902,-21.51311 3.52354,-5.72522 6.32539,-10.48373 6.22636,-10.57447 -0.58149,-0.53277 -40.51635,6.0931 -45.05718,7.47574 -0.59373,0.1808 -1.07952,0.57021 -1.07952,0.86536 0,1.02486 7.86199,23.17997 11.38187,32.07419 1.9469,4.91952 3.80894,9.63411 4.13787,10.47688 0.56673,1.45207 0.72897,1.29056 3.09852,-3.08434 1.37525,-2.53915 5.28714,-9.61326 8.69306,-15.72025 z m 199.09399,11.43625 c 6.04287,-14.84267 12.9044,-34.80928 12.20318,-35.51049 -0.55992,-0.55993 -20.82655,-4.46464 -31.64945,-6.0978 -14.05454,-2.12083 -14.49638,-2.17757 -14.49638,-1.86163 0,0.15087 2.11258,3.65019 4.69463,7.77627 5.12366,8.18756 18.81929,31.96748 22.75597,39.51155 1.35711,2.6007 2.67374,4.52313 2.92586,4.27205 0.25212,-0.25106 1.8569,-3.89154 3.56619,-8.08995 z m 19.33708,-59.70613 c 1.80894,-7.97142 4.01959,-20.87732 5.09823,-29.76386 1.61027,-13.26622 1.45762,-35.414309 -0.31188,-45.250772 -3.03456,-16.868858 -8.64143,-27.700955 -16.57293,-32.017821 -17.32905,-9.43165 -53.14395,5.549164 -89.30038,37.352959 -4.41061,3.87964 -8.53955,7.637384 -9.17544,8.350554 -1.34753,1.51129 -2.21337,0.26021 9.53702,13.78018 8.54476,9.83157 19.26872,23.36551 26.5838,33.54951 l 5.33014,7.42056 7.92007,0.77718 c 15.37332,1.50855 43.24126,6.01734 55.41886,8.96629 2.03567,0.49296 3.88715,0.91942 4.11442,0.94768 0.22726,0.0283 0.8384,-1.82234 1.35809,-4.11246 z m -239.44876,1.40591 c 13.92395,-2.79396 31.75157,-5.53576 45.00172,-6.92105 l 10.61544,-1.10983 2.8181,-3.96333 c 8.74658,-12.301 22.59117,-29.56068 33.83135,-42.17662 3.29934,-3.70317 6.08099,-6.95162 6.18146,-7.21876 0.10045,-0.26715 -3.36943,-3.600016 -7.71085,-7.406366 -36.24081,-31.774205 -71.78171,-47.426325 -91.06578,-40.105139 -9.67984,3.674948 -16.11831,16.051626 -18.644,35.83941 -1.71943,13.471045 -0.70877,37.839645 2.22351,53.612405 2.36038,12.69655 4.53009,21.59036 5.26711,21.59036 0.44644,0 5.61331,-0.96349 11.48194,-2.14108 z m 142.9883,-10.7245 c 0,-0.87015 -17.78873,-22.67448 -24.90674,-30.52914 l -4.94554,-5.45736 -1.57506,1.84256 c -0.86629,1.01342 -4.79183,5.55116 -8.72344,10.08387 -7.27845,8.39128 -18.11574,21.67827 -19.04871,23.35456 -0.45463,0.81684 2.98484,0.9253 29.34225,0.9253 16.42149,0 29.85724,-0.0989 29.85724,-0.21979 z"
     style="opacity:0.988;fill:#0000ff;stroke:#ffffff;stroke-width:0.617839;stroke-linecap:round" />
  <path
     id="path837"
     d="m 249.81686,301.07715 c -17.46226,-2.78319 -31.26287,-14.38914 -37.09705,-31.19763 -1.56697,-4.51452 -1.7129,-5.69695 -1.7129,-13.87952 0,-8.18257 0.14593,-9.365 1.7129,-13.87952 5.19129,-14.95632 16.62285,-25.79055 31.67733,-30.0221 6.70616,-1.88498 16.49956,-1.88498 23.20572,0 15.05448,4.23155 26.48604,15.06578 31.67733,30.0221 1.56698,4.51452 1.7129,5.69695 1.7129,13.87952 0,8.18257 -0.14592,9.365 -1.7129,13.87952 -5.13988,14.8082 -16.68825,25.84098 -31.28158,29.88501 -5.11479,1.41737 -13.65577,2.03399 -18.18175,1.31262 z"
     style="opacity:0.988;fill:#0000ff;stroke:#ffffff;stroke-width:0.617839;stroke-linecap:round" />
</svg>
